<svg width="64" height="40" viewBox="0 0 64 40" fill="none" xmlns="http://www.w3.org/2000/svg">
<path d="M22.5561 12.6359L19.7173 10.812L15.9324 8.3802V8.3802C14.3713 7.37722 12.2913 7.84575 11.3111 9.42121L9.52853 12.2861L4.77508 19.9257V19.9257C3.78646 21.5145 4.25687 23.6028 5.83127 24.6144L11.5087 28.2621L12.455 28.87L14.3475 30.0859V30.0859C14.8678 30.4202 15.5611 30.2641 15.8879 29.7389L19.453 24.0092L24.2064 16.3696L25.989 13.5048L29.5541 7.77505V7.77505C30.5369 6.19547 32.6178 5.71646 34.1869 6.71592C35.5123 7.56016 36.8373 8.41258 37.0141 8.5579C37.381 8.85945 45.2826 13.6922 45.2826 13.6922" stroke="url(#paint0_linear_166_480)" stroke-width="6"/>
<path d="M41.4375 27.2394L44.2861 29.0459L48.0843 31.4545V31.4545C49.6505 32.4478 51.7267 31.9665 52.6962 30.3855L54.4595 27.5099L59.1616 19.8417V19.8417C60.1397 18.2466 59.6564 16.1618 58.0762 15.1597L52.379 11.5467L51.4294 10.9446L49.5303 9.74027V9.74027C49.0083 9.40918 48.3162 9.56961 47.993 10.0966L44.4665 15.8478L39.7644 23.5159L38.0011 26.3915L34.4745 32.1426V32.1426C33.505 33.7237 31.4289 34.2049 29.8626 33.2117L27.014 31.4052L18.6411 26.1067" stroke="url(#paint1_linear_166_480)" stroke-width="6"/>
<defs>
<linearGradient id="paint0_linear_166_480" x1="21.0991" y1="4.75301" x2="26.3801" y2="28.1965" gradientUnits="userSpaceOnUse">
<stop stop-color="white"/>
<stop offset="1" stop-color="#49BBF0"/>
</linearGradient>
<linearGradient id="paint1_linear_166_480" x1="15.8342" y1="30.8527" x2="62.6945" y2="18.8372" gradientUnits="userSpaceOnUse">
<stop stop-color="#49BBF0"/>
<stop offset="1" stop-color="white"/>
</linearGradient>
</defs>
</svg>
