<svg width="64" height="40" viewBox="0 0 64 40" fill="none" xmlns="http://www.w3.org/2000/svg">
<path d="M22.5561 12.6356L19.7173 10.8118L15.9324 8.37996V8.37996C14.3713 7.37698 12.2913 7.84551 11.3111 9.42096L9.52853 12.2858L4.77508 19.9254V19.9254C3.78646 21.5143 4.25687 23.6026 5.83127 24.6141L11.5087 28.2618L12.455 28.8698L14.3475 30.0857V30.0857C14.8678 30.42 15.5611 30.2638 15.8879 29.7387L19.453 24.009L24.2064 16.3694L25.989 13.5045L29.5541 7.77481V7.77481C30.5369 6.19522 32.6178 5.71621 34.1869 6.71568C35.5123 7.55991 36.8373 8.41233 37.0141 8.55765C37.381 8.8592 45.2826 13.692 45.2826 13.692" stroke="url(#paint0_linear_125_1601)" stroke-width="6"/>
<path d="M41.4375 27.2394L44.2861 29.0459L48.0843 31.4545V31.4545C49.6505 32.4478 51.7267 31.9665 52.6962 30.3855L54.4595 27.5099L59.1616 19.8417V19.8417C60.1397 18.2466 59.6564 16.1618 58.0762 15.1597L52.379 11.5467L51.4294 10.9446L49.5303 9.74027V9.74027C49.0083 9.40918 48.3162 9.56961 47.993 10.0966L44.4665 15.8478L39.7644 23.5159L38.0011 26.3915L34.4745 32.1426V32.1426C33.505 33.7237 31.4289 34.2049 29.8626 33.2117L27.014 31.4052L18.6411 26.1067" stroke="url(#paint1_linear_125_1601)" stroke-width="6"/>
<defs>
<linearGradient id="paint0_linear_125_1601" x1="21.0991" y1="4.75277" x2="26.3801" y2="28.1963" gradientUnits="userSpaceOnUse">
<stop stop-color="#125AFF"/>
<stop offset="1" stop-color="#49BBF0"/>
</linearGradient>
<linearGradient id="paint1_linear_125_1601" x1="15.8342" y1="30.8527" x2="62.6945" y2="18.8372" gradientUnits="userSpaceOnUse">
<stop stop-color="#49BBF0"/>
<stop offset="1" stop-color="#125AFF"/>
</linearGradient>
</defs>
</svg>
